<svg width="548" height="117" viewBox="0 0 548 117" fill="none" xmlns="http://www.w3.org/2000/svg">
<g clip-path="url(#clip0_5_126)">
<path d="M39.9999 76.5C44.9999 76.5 49.2499 74.75 52.7499 71.25C56.2499 67.75 57.9999 63.5 57.9999 58.5C57.9999 53.5 56.2499 49.25 52.7499 45.75C49.2499 42.25 44.9999 40.5 39.9999 40.5C34.9999 40.5 30.7499 42.25 27.2499 45.75C23.7499 49.25 21.9999 53.5 21.9999 58.5C21.9999 63.5 23.7499 67.75 27.2499 71.25C30.7499 74.75 34.9999 76.5 39.9999 76.5ZM39.9999 62.5C38.8666 62.5 37.9166 62.1167 37.1499 61.35C36.3833 60.5833 35.9999 59.6333 35.9999 58.5C35.9999 57.3667 36.3833 56.4167 37.1499 55.65C37.9166 54.8833 38.8666 54.5 39.9999 54.5C41.1333 54.5 42.0833 54.8833 42.8499 55.65C43.6166 56.4167 43.9999 57.3667 43.9999 58.5C43.9999 59.6333 43.6166 60.5833 42.8499 61.35C42.0833 62.1167 41.1333 62.5 39.9999 62.5ZM39.9999 98.5C34.4666 98.5 29.2666 97.45 24.3999 95.35C19.5333 93.25 15.2999 90.4 11.6999 86.8C8.09994 83.2 5.24994 78.9667 3.14994 74.1C1.04994 69.2333 -6.10352e-05 64.0333 -6.10352e-05 58.5C-6.10352e-05 52.9667 1.04994 47.7667 3.14994 42.9C5.24994 38.0333 8.09994 33.8 11.6999 30.2C15.2999 26.6 19.5333 23.75 24.3999 21.65C29.2666 19.55 34.4666 18.5 39.9999 18.5C47.9999 18.5 55.2999 20.6833 61.8999 25.05C68.4999 29.4167 73.3999 35.2333 76.5999 42.5H67.5999C64.7999 37.5 60.9333 33.5833 55.9999 30.75C51.0666 27.9167 45.7333 26.5 39.9999 26.5C31.0666 26.5 23.4999 29.6 17.2999 35.8C11.0999 42 7.99994 49.5667 7.99994 58.5C7.99994 67.4333 11.0999 75 17.2999 81.2C23.4999 87.4 31.0666 90.5 39.9999 90.5C44.5999 90.5 48.9999 89.55 53.1999 87.65C57.3999 85.75 60.9999 83.0333 63.9999 79.5V90.5C60.4666 93.0333 56.6666 95 52.5999 96.4C48.5333 97.8 44.3333 98.5 39.9999 98.5ZM71.9999 82.5V50.5H79.9999V82.5H71.9999ZM75.9999 98.5C74.8666 98.5 73.9166 98.1167 73.1499 97.35C72.3833 96.5833 71.9999 95.6333 71.9999 94.5C71.9999 93.3667 72.3833 92.4167 73.1499 91.65C73.9166 90.8833 74.8666 90.5 75.9999 90.5C77.1333 90.5 78.0833 90.8833 78.8499 91.65C79.6166 92.4167 79.9999 93.3667 79.9999 94.5C79.9999 95.6333 79.6166 96.5833 78.8499 97.35C78.0833 98.1167 77.1333 98.5 75.9999 98.5Z" fill="white"/>
</g>
<path d="M103.136 23.6818L118.75 74.8182H119.33L134.943 23.6818H153.83L130.273 93.5H107.807L84.25 23.6818H103.136ZM178.222 23.6818V93.5H161.347V23.6818H178.222ZM248.236 23.6818V93.5H233.918L206.134 53.2045H205.69V93.5H188.815V23.6818H203.338L230.815 63.9091H231.395V23.6818H248.236ZM275.722 23.6818V93.5H258.847V23.6818H275.722ZM286.315 93.5V23.6818H303.19V79.7955H332.236V93.5H286.315ZM330.156 37.3864V23.6818H389.168V37.3864H367.997V93.5H351.361V37.3864H330.156ZM414.284 23.6818V93.5H397.409V23.6818H414.284ZM424.878 93.5V23.6818H472.537V37.3864H441.753V51.7045H469.503V65.4432H441.753V93.5H424.878ZM477.557 23.6818H496.409L511.17 52.8977H511.784L526.545 23.6818H545.398L519.864 70.1818V93.5H503.091V70.1818L477.557 23.6818Z" fill="white"/>
<defs>
<clipPath id="clip0_5_126">
<rect width="80" height="80" fill="white" transform="translate(0 18.5)"/>
</clipPath>
</defs>
</svg>
